<?xml version="1.0" encoding="utf-8"?>
<!-- Generator: Adobe Illustrator 15.1.0, SVG Export Plug-In . SVG Version: 6.00 Build 0)  -->
<!DOCTYPE svg PUBLIC "-//W3C//DTD SVG 1.1//EN" "http://www.w3.org/Graphics/SVG/1.1/DTD/svg11.dtd">
<svg version="1.1" id="Ebene_1" xmlns="http://www.w3.org/2000/svg" xmlns:xlink="http://www.w3.org/1999/xlink" x="0px" y="0px"
	 width="649.652px" height="234.523px" viewBox="0 0 649.652 234.523" enable-background="new 0 0 649.652 234.523"
	 xml:space="preserve">
<polygon fill="#FBBA00" points="233.832,29.854 267.035,29.854 267.035,39.269 243.821,39.269 243.821,50.458 266.542,50.458 
	266.542,59.875 243.821,59.875 243.821,81.327 233.832,81.327 "/>
<path fill="#FBBA00" d="M307.904,72.452h-20.963l-2.955,8.875h-10.974l18.15-51.473h12.522l18.079,51.473h-10.904L307.904,72.452z
	 M289.614,62.96h15.546l-7.737-23.614L289.614,62.96z"/>
<path fill="#FBBA00" d="M350.459,62.883h-7.316v18.444h-9.988V29.855h21.947c9.777,0,15.758,7.022,15.758,16.591
	c0,9.106-5.206,13.968-10.271,15.28l10.551,19.601h-11.465L350.459,62.883z M353.623,39.269h-10.48v14.2h10.48
	c4.011,0,7.035-2.779,7.035-7.1C360.658,42.047,357.634,39.269,353.623,39.269"/>
<polygon fill="#FBBA00" points="426.219,44.285 412.994,81.327 408.633,81.327 395.407,44.285 395.407,81.327 385.418,81.327 
	385.418,29.855 399.417,29.855 410.813,61.957 422.208,29.855 436.277,29.855 436.277,81.327 426.219,81.327 "/>
<polygon fill="#009453" points="460.434,29.778 455.644,29.778 455.644,81.426 481.115,81.426 481.115,76.497 460.434,76.497 "/>
<polygon fill="#009453" points="481.115,76.497 481.115,81.425 455.644,81.425 455.644,29.778 460.434,29.778 460.434,76.497 "/>
<polygon fill="#009453" points="553.418,29.778 553.418,81.426 558.208,81.426 558.208,36.786 585.353,81.426 590.638,81.426 
	590.638,29.778 585.847,29.778 585.847,73.306 559.199,29.778 "/>
<polygon fill="#009453" points="585.848,73.305 585.848,29.778 590.638,29.778 590.638,81.425 585.353,81.425 558.208,36.787 
	558.208,81.425 553.418,81.425 553.418,29.778 559.198,29.778 "/>
<path fill="#009453" d="M626.822,29.778h-15.725v51.647h15.725c13.656,0,22.83-10.361,22.83-25.782
	C649.652,40.172,640.479,29.778,626.822,29.778 M626.822,76.497h-10.936V34.707h10.936c10.666,0,17.831,8.415,17.831,20.937
	C644.653,67.922,637.32,76.497,626.822,76.497"/>
<path fill="#FBBA00" d="M144.397,0c-18.945,0-36.104,7.684-48.522,20.102C83.454,32.523,75.771,49.68,75.771,68.623
	c0,2.302,0.114,4.575,0.335,6.817c35.077-9.444,73.461-14.278,112.017-15.076c-28.89-4.135-63.059-5.886-92.768-1.844
	c0.541-2.636,1.289-5.195,2.227-7.663c30.259-4.219,61.207-0.113,89.665,6.539c-25.407-10.905-56.432-18.705-83.803-17.572
	c1.664-2.358,3.521-4.563,5.555-6.597c0.406-0.404,0.815-0.8,1.232-1.188c28.596,1.826,50.883,7.795,76.44,22.139
	C166.8,35.681,145.342,27.332,123.203,23.26c6.436-3.015,13.617-4.697,21.194-4.697c28.523,0,49.945,22.146,49.811,48.955
	c-0.173,34.676-36.146,62.42-75.094,49.327c37.599,22.978,93.527,1.343,94.035-49.502C213.518,30.451,184.803,0,144.397,0"/>
<path fill-rule="evenodd" clip-rule="evenodd" fill="#009453" d="M1.959,112.739c-2.008,0.738-2.748-1.646-0.898-2.392
	C31.914,97.931,80.843,81.93,142.712,75.878c3.338-0.327,1.486,6.265-2.092,6.576C84.52,87.332,36.955,99.866,1.959,112.739"/>
<path fill-rule="evenodd" clip-rule="evenodd" fill="#009453" d="M42.691,114.177c-1.864,0.534-2.532-1.602-0.813-2.168
	c17.945-5.916,52.597-18.186,97.146-22.193c4.802-0.432,4.112,5.109-0.386,5.479C102.756,98.239,63.599,108.185,42.691,114.177"/>
<path fill-rule="evenodd" clip-rule="evenodd" fill="#009453" d="M78.067,119c-1.639,0.425-2.221-1.428-0.711-1.894
	c16.14-4.983,33.515-12.064,71.801-15.819c4.192-0.411,3.587,4.42-0.337,4.786C118.714,108.889,97.5,113.96,78.067,119"/>
<path fill="#009453" d="M519.459,29.778h-6.942l-17.693,51.648h5.351l3.445-10.335h24.693l3.446,10.335h5.349L519.459,29.778z
	 M504.793,66.287l11.173-34.57l11.172,34.57H504.793z"/>
<path fill="#595957" d="M353.044,103.66h3.104c1.628,0,2.862,0.343,3.701,1.025c0.841,0.683,1.26,1.626,1.26,2.828
	c0,1.437-0.715,2.543-2.145,3.318c2.297,0.498,3.446,1.756,3.446,3.775c0,1.21-0.449,2.171-1.35,2.888
	c-0.9,0.714-2.118,1.07-3.655,1.07h-4.361V103.66z M354.195,104.623v5.941h1.601c2.711,0,4.064-0.989,4.064-2.967
	c0-1.984-1.37-2.975-4.108-2.975H354.195z M354.195,111.535v6.071h3.083c1.274,0,2.239-0.275,2.901-0.822
	c0.662-0.548,0.993-1.281,0.993-2.198c0-2.033-1.466-3.051-4.396-3.051H354.195z"/>
<polygon fill="#595957" points="378.906,103.661 373.112,110.563 373.112,118.565 371.961,118.565 371.961,110.563 366.168,103.661 
	367.56,103.661 372.544,109.565 377.499,103.661 "/>
<path fill="#595957" d="M397.188,103.661v13.528c0,3.82-1.758,5.73-5.27,5.73c-0.336,0-0.699-0.017-1.09-0.054v-2.922
	c0.198,0.034,0.39,0.052,0.566,0.052c1.386,0,2.079-0.913,2.079-2.741v-13.593H397.188z"/>
<path fill="#595957" d="M412.473,103.66l6.619,14.905h-3.99l-1.229-2.944h-6.675l-1.111,2.944h-3.936l6.021-14.905H412.473z
	 M412.787,113.018l-2.416-5.793l-2.189,5.793H412.787z"/>
<polygon fill="#595957" points="439.186,103.661 439.186,118.565 436.05,118.565 427.823,109.018 427.823,118.565 424.109,118.565 
	424.109,103.661 427.513,103.661 435.473,112.772 435.473,103.661 "/>
<path fill="#595957" d="M455.925,104.622v2.912c-1.977-0.889-3.552-1.335-4.726-1.335c-0.667,0-1.2,0.114-1.596,0.337
	c-0.394,0.225-0.592,0.521-0.592,0.89c0,0.285,0.143,0.556,0.428,0.812c0.284,0.256,0.979,0.587,2.08,0.993
	c1.104,0.404,1.983,0.783,2.646,1.131s1.233,0.838,1.714,1.471c0.479,0.633,0.719,1.433,0.719,2.4c0,1.379-0.524,2.479-1.572,3.296
	c-1.051,0.818-2.432,1.228-4.146,1.228c-1.851,0-3.641-0.481-5.378-1.441v-3.21c0.996,0.667,1.879,1.154,2.646,1.46
	c0.768,0.305,1.582,0.459,2.442,0.459c1.458,0,2.188-0.457,2.188-1.375c0-0.313-0.146-0.607-0.437-0.885
	c-0.293-0.277-0.995-0.615-2.107-1.013c-1.114-0.399-1.995-0.769-2.647-1.11c-0.649-0.341-1.212-0.829-1.685-1.462
	c-0.474-0.633-0.708-1.445-0.708-2.433c0-1.28,0.515-2.314,1.546-3.1c1.031-0.787,2.411-1.179,4.14-1.179
	C452.472,103.47,454.155,103.853,455.925,104.622"/>
<path fill="#595957" d="M476.178,114.02v3.255c-1.864,0.988-3.816,1.483-5.857,1.483c-2.646,0-4.753-0.731-6.32-2.193
	c-1.569-1.462-2.354-3.263-2.354-5.403c0-2.141,0.827-3.959,2.481-5.454c1.654-1.492,3.814-2.238,6.482-2.238
	c2.125,0,3.925,0.437,5.397,1.312v3.318c-1.807-1.018-3.517-1.525-5.133-1.525c-1.585,0-2.881,0.425-3.887,1.272
	c-1.008,0.852-1.51,1.933-1.51,3.249c0,1.324,0.496,2.416,1.487,3.276c0.991,0.862,2.264,1.291,3.813,1.291
	c0.77,0,1.508-0.1,2.22-0.304C473.709,115.158,474.77,114.71,476.178,114.02"/>
<polygon fill="#595957" points="497.282,103.661 497.282,118.565 493.57,118.565 493.57,112.538 486.146,112.538 486.146,118.565 
	482.432,118.565 482.432,103.661 486.146,103.661 486.146,109.646 493.57,109.646 493.57,103.661 "/>
<rect x="504.019" y="103.66" fill="#595957" width="3.712" height="14.905"/>
<polygon fill="#595957" points="527.896,103.661 527.896,106.392 522.497,106.392 522.497,118.565 518.784,118.565 518.784,106.392 
	513.386,106.392 513.386,103.661 "/>
<polygon fill="#595957" points="546.323,103.661 538.194,115.834 546.323,115.834 546.323,118.565 531.854,118.565 540.048,106.392 
	532.42,106.392 532.42,103.661 "/>
<path fill="#009453" d="M100.651,226.183c0,1.46-0.526,2.611-1.576,3.451c-1.051,0.841-2.513,1.261-4.386,1.261
	c-1.725,0-3.252-0.324-4.579-0.973v-3.186c1.091,0.486,2.015,0.829,2.771,1.028c0.755,0.199,1.447,0.299,2.073,0.299
	c0.753,0,1.329-0.144,1.732-0.432c0.402-0.287,0.602-0.715,0.602-1.283c0-0.317-0.088-0.599-0.265-0.846
	c-0.177-0.247-0.437-0.485-0.78-0.714c-0.343-0.229-1.042-0.594-2.096-1.096c-0.988-0.464-1.729-0.91-2.223-1.338
	c-0.494-0.427-0.889-0.925-1.184-1.492c-0.295-0.568-0.442-1.232-0.442-1.991c0-1.431,0.485-2.556,1.454-3.374
	c0.97-0.818,2.31-1.228,4.021-1.228c0.841,0,1.643,0.099,2.406,0.298c0.763,0.199,1.561,0.48,2.394,0.842l-1.106,2.666
	c-0.863-0.354-1.576-0.602-2.14-0.741c-0.564-0.142-1.119-0.211-1.665-0.211c-0.648,0-1.146,0.151-1.493,0.454
	c-0.347,0.302-0.52,0.696-0.52,1.184c0,0.302,0.07,0.566,0.21,0.79c0.141,0.226,0.364,0.442,0.67,0.653
	c0.306,0.21,1.03,0.588,2.173,1.134c1.511,0.722,2.548,1.446,3.108,2.173C100.37,224.239,100.651,225.129,100.651,226.183"/>
<path fill="#009453" d="M111.561,230.674l-3.894-12.688h-0.099c0.14,2.581,0.21,4.304,0.21,5.166v7.521h-3.064v-16.171h4.668
	l3.827,12.366h0.066l4.059-12.366h4.668v16.171h-3.196v-7.654c0-0.361,0.005-0.777,0.016-1.25c0.011-0.472,0.061-1.725,0.15-3.761
	h-0.1l-4.17,12.665H111.561z"/>
<path fill="#009453" d="M137.104,230.674l-1.172-3.85h-5.896l-1.172,3.85h-3.694l5.707-16.237h4.192l5.73,16.237H137.104z
	 M135.114,223.949c-1.084-3.487-1.694-5.46-1.83-5.917c-0.137-0.458-0.235-0.818-0.294-1.084c-0.243,0.944-0.94,3.277-2.09,7.001
	H135.114z"/>
<path fill="#009453" d="M147.396,224.469v6.205h-3.429v-16.171h4.712c2.197,0,3.823,0.399,4.878,1.199
	c1.054,0.801,1.582,2.017,1.582,3.646c0,0.951-0.262,1.797-0.786,2.539c-0.523,0.74-1.265,1.32-2.223,1.741
	c2.433,3.636,4.019,5.983,4.756,7.046h-3.805l-3.86-6.205H147.396z M147.396,221.682h1.106c1.084,0,1.884-0.182,2.4-0.543
	c0.516-0.36,0.775-0.929,0.775-1.703c0-0.767-0.264-1.313-0.791-1.637c-0.528-0.324-1.344-0.486-2.45-0.486h-1.04V221.682z"/>
<polygon fill="#009453" points="166.292,230.674 162.863,230.674 162.863,217.357 158.472,217.357 158.472,214.503 170.683,214.503 
	170.683,217.357 166.292,217.357 "/>
<path fill="#009453" d="M203.017,222.566c0,1.903-0.337,3.498-1.012,4.784c-0.675,1.287-1.665,2.229-2.97,2.826l3.893,4.347h-4.391
	l-2.964-3.628h-0.254c-2.478,0-4.381-0.719-5.708-2.156c-1.327-1.438-1.991-3.502-1.991-6.194c0-2.691,0.666-4.747,1.997-6.166
	c1.331-1.42,3.239-2.129,5.724-2.129c2.484,0,4.385,0.715,5.701,2.145C202.358,217.825,203.017,219.882,203.017,222.566
	 M191.215,222.566c0,1.808,0.343,3.167,1.029,4.082c0.685,0.914,1.711,1.371,3.075,1.371c2.735,0,4.104-1.816,4.104-5.453
	c0-3.642-1.36-5.464-4.081-5.464c-1.365,0-2.393,0.459-3.086,1.378C191.562,219.397,191.215,220.76,191.215,222.566"/>
<path fill="#009453" d="M220.663,214.503v10.463c0,1.195-0.268,2.242-0.802,3.142c-0.535,0.9-1.307,1.59-2.317,2.068
	c-1.011,0.48-2.205,0.719-3.584,0.719c-2.079,0-3.694-0.533-4.845-1.598c-1.15-1.065-1.725-2.524-1.725-4.375v-10.419h3.418v9.899
	c0,1.246,0.251,2.16,0.752,2.742c0.501,0.583,1.331,0.874,2.488,0.874c1.121,0,1.934-0.293,2.439-0.879
	c0.506-0.586,0.758-1.506,0.758-2.76v-9.877H220.663z"/>
<path fill="#009453" d="M235.654,230.674l-1.172-3.85h-5.896l-1.172,3.85h-3.695l5.708-16.237h4.192l5.729,16.237H235.654z
	 M233.664,223.949c-1.084-3.487-1.694-5.46-1.831-5.917c-0.136-0.458-0.234-0.818-0.293-1.084c-0.243,0.944-0.94,3.277-2.09,7.001
	H233.664z"/>
<polygon fill="#009453" points="242.517,230.674 242.517,214.503 245.946,214.503 245.946,227.842 252.505,227.842 252.505,230.674 
	"/>
<rect x="256.446" y="214.503" fill="#009453" width="3.429" height="16.171"/>
<polygon fill="#009453" points="271.317,230.674 267.888,230.674 267.888,217.357 263.497,217.357 263.497,214.503 275.708,214.503 
	275.708,217.357 271.317,217.357 "/>
<polygon fill="#009453" points="284.362,221.162 287.736,214.502 291.43,214.502 286.065,224.381 286.065,230.674 282.659,230.674 
	282.659,224.491 277.294,214.502 281.011,214.502 "/>
<rect x="308.631" y="214.503" fill="#009453" width="3.429" height="16.171"/>
<path fill="#009453" d="M331.609,230.674h-4.357l-7.035-12.233h-0.099c0.14,2.16,0.21,3.701,0.21,4.623v7.61h-3.064v-16.171h4.325
	l7.023,12.11h0.078c-0.111-2.101-0.166-3.587-0.166-4.457v-7.653h3.086V230.674z"/>
<path fill="#009453" d="M351.158,230.674h-4.357l-7.035-12.233h-0.1c0.141,2.16,0.211,3.701,0.211,4.623v7.61h-3.064v-16.171h4.324
	l7.025,12.11h0.076c-0.111-2.101-0.166-3.587-0.166-4.457v-7.653h3.086V230.674z"/>
<path fill="#009453" d="M371.039,222.566c0,2.677-0.664,4.734-1.991,6.173c-1.327,1.438-3.229,2.156-5.707,2.156
	c-2.478,0-4.38-0.719-5.708-2.156c-1.327-1.438-1.991-3.502-1.991-6.194c0-2.691,0.666-4.747,1.997-6.166
	c1.331-1.42,3.239-2.129,5.725-2.129c2.484,0,4.386,0.715,5.702,2.145C370.381,217.825,371.039,219.882,371.039,222.566
	 M359.237,222.566c0,1.808,0.343,3.167,1.028,4.082c0.687,0.914,1.711,1.371,3.075,1.371c2.736,0,4.104-1.816,4.104-5.453
	c0-3.642-1.361-5.464-4.082-5.464c-1.364,0-2.394,0.459-3.086,1.378C359.584,219.397,359.237,220.76,359.237,222.566"/>
<path fill="#009453" d="M384.748,214.503h3.462l-5.497,16.171h-3.739l-5.485-16.171h3.462l3.042,9.623
	c0.169,0.567,0.344,1.229,0.524,1.985c0.182,0.756,0.293,1.28,0.337,1.576c0.081-0.679,0.358-1.865,0.83-3.562L384.748,214.503z"/>
<path fill="#009453" d="M401.277,230.674l-1.172-3.85h-5.896l-1.172,3.85h-3.695l5.709-16.237h4.191l5.73,16.237H401.277z
	 M399.286,223.949c-1.084-3.487-1.694-5.46-1.83-5.917c-0.137-0.458-0.234-0.818-0.294-1.084c-0.243,0.944-0.939,3.277-2.09,7.001
	H399.286z"/>
<polygon fill="#009453" points="414.378,230.674 410.949,230.674 410.949,217.357 406.558,217.357 406.558,214.503 418.769,214.503 
	418.769,217.357 414.378,217.357 "/>
<rect x="422.391" y="214.503" fill="#009453" width="3.429" height="16.171"/>
<path fill="#009453" d="M445.699,222.566c0,2.677-0.664,4.734-1.99,6.173c-1.328,1.438-3.23,2.156-5.707,2.156
	c-2.479,0-4.381-0.719-5.708-2.156c-1.327-1.438-1.991-3.502-1.991-6.194c0-2.691,0.666-4.747,1.997-6.166
	c1.331-1.42,3.239-2.129,5.724-2.129s4.385,0.715,5.701,2.145C445.042,217.825,445.699,219.882,445.699,222.566 M433.897,222.566
	c0,1.808,0.343,3.167,1.029,4.082c0.685,0.914,1.711,1.371,3.075,1.371c2.734,0,4.103-1.816,4.103-5.453
	c0-3.642-1.36-5.464-4.081-5.464c-1.365,0-2.393,0.459-3.086,1.378C434.244,219.397,433.897,220.76,433.897,222.566"/>
<path fill="#009453" d="M464.529,230.674h-4.357l-7.035-12.233h-0.1c0.141,2.16,0.21,3.701,0.21,4.623v7.61h-3.063v-16.171h4.325
	l7.023,12.11h0.077c-0.111-2.101-0.166-3.587-0.166-4.457v-7.653h3.086V230.674z"/>
<rect x="474.823" y="223.219" fill="#FBBA00" width="5.94" height="2.765"/>
<polygon fill="#FBBA00" points="494.996,230.674 491.622,230.674 491.622,214.503 500.891,214.503 500.891,217.312 494.996,217.312 
	494.996,221.483 500.482,221.483 500.482,224.282 494.996,224.282 "/>
<path fill="#FBBA00" d="M519.864,222.566c0,2.677-0.663,4.734-1.99,6.173c-1.327,1.438-3.229,2.156-5.707,2.156
	c-2.479,0-4.382-0.719-5.708-2.156c-1.327-1.438-1.991-3.502-1.991-6.194c0-2.691,0.666-4.747,1.997-6.166
	c1.331-1.42,3.239-2.129,5.724-2.129c2.485,0,4.386,0.715,5.702,2.145C519.207,217.825,519.864,219.882,519.864,222.566
	 M508.063,222.566c0,1.808,0.343,3.167,1.029,4.082c0.685,0.914,1.711,1.371,3.075,1.371c2.734,0,4.104-1.816,4.104-5.453
	c0-3.642-1.36-5.464-4.082-5.464c-1.364,0-2.393,0.459-3.086,1.378C508.41,219.397,508.063,220.76,508.063,222.566"/>
<path fill="#FBBA00" d="M527.777,224.469v6.205h-3.429v-16.171h4.712c2.197,0,3.823,0.399,4.878,1.199
	c1.054,0.801,1.582,2.017,1.582,3.646c0,0.951-0.262,1.797-0.786,2.539c-0.522,0.74-1.264,1.32-2.223,1.741
	c2.434,3.636,4.019,5.983,4.756,7.046h-3.804l-3.861-6.205H527.777z M527.777,221.682h1.106c1.084,0,1.884-0.182,2.399-0.543
	c0.517-0.36,0.775-0.929,0.775-1.703c0-0.767-0.264-1.313-0.791-1.637s-1.344-0.486-2.45-0.486h-1.04V221.682z"/>
<polygon fill="#FBBA00" points="552.485,221.162 555.859,214.502 559.554,214.502 554.189,224.381 554.189,230.674 550.782,230.674 
	550.782,224.491 545.418,214.502 549.135,214.502 "/>
<path fill="#FBBA00" d="M577.398,222.566c0,2.677-0.664,4.734-1.99,6.173c-1.327,1.438-3.229,2.156-5.707,2.156
	c-2.479,0-4.38-0.719-5.708-2.156c-1.327-1.438-1.991-3.502-1.991-6.194c0-2.691,0.666-4.747,1.997-6.166
	c1.331-1.42,3.239-2.129,5.724-2.129c2.485,0,4.385,0.715,5.702,2.145C576.741,217.825,577.398,219.882,577.398,222.566
	 M565.597,222.566c0,1.808,0.343,3.167,1.029,4.082c0.686,0.914,1.711,1.371,3.075,1.371c2.734,0,4.104-1.816,4.104-5.453
	c0-3.642-1.361-5.464-4.082-5.464c-1.363,0-2.393,0.459-3.086,1.378C565.943,219.397,565.597,220.76,565.597,222.566"/>
<path fill="#FBBA00" d="M595.046,214.503v10.463c0,1.195-0.269,2.242-0.802,3.142c-0.535,0.9-1.308,1.59-2.317,2.068
	c-1.011,0.48-2.205,0.719-3.584,0.719c-2.079,0-3.694-0.533-4.845-1.598c-1.15-1.065-1.726-2.524-1.726-4.375v-10.419h3.418v9.899
	c0,1.246,0.251,2.16,0.752,2.742c0.501,0.583,1.331,0.874,2.488,0.874c1.121,0,1.934-0.293,2.438-0.879
	c0.507-0.586,0.759-1.506,0.759-2.76v-9.877H595.046z"/>
<path fill="#009453" d="M180.323,224.215c0,1.35-1.095,2.445-2.445,2.445s-2.444-1.096-2.444-2.445s1.094-2.445,2.444-2.445
	S180.323,222.866,180.323,224.215"/>
<path fill="#009453" d="M300.763,224.233c0,1.35-1.095,2.444-2.445,2.444s-2.444-1.095-2.444-2.444c0-1.351,1.094-2.445,2.444-2.445
	S300.763,222.882,300.763,224.233"/>
</svg>
